<svg xmlns="http://www.w3.org/2000/svg" viewBox="0 0 750 750" id="illustrator">
  <path d="M532.25,110.76H217.75a107.12,107.12,0,0,0-107,107v314.5a107.12,107.12,0,0,0,107,107h314.5a107.12,107.12,0,0,0,107-107,20,20,0,0,0-40,0,67.06,67.06,0,0,1-67,67H217.75a67.06,67.06,0,0,1-67-67V217.75a67.06,67.06,0,0,1,67-67h314.5a67.06,67.06,0,0,1,67,67v115a20,20,0,0,0,40,0v-115A107.12,107.12,0,0,0,532.25,110.76Z"></path>
  <path d="M350.12 255.3a20 20 0 00-18.69 11.35L271.28 392.23a19.78 19.78 0 00-3 6.24L232 474.18a20 20 0 1036.08 17.28l32.38-67.61h87l26.65 66.42a20 20 0 0037.13-14.89L368 267.85A20 20 0 00350.12 255.3zM319.64 383.85L347.85 325l23.62 58.88zM519.94 267.18a20 20 0 00-40 0v10.7a20 20 0 0040 0zM499.94 314.59a20 20 0 00-20 20V482.82a20 20 0 1040 0V334.59A20 20 0 00499.94 314.59z"></path>
</svg>
