<svg xmlns="http://www.w3.org/2000/svg" viewBox="0 0 48 48" id="right">
  <path d="m39.02,18.52c-4.02-2.49-8.13-4.8-11.46-8.23-.19-.16-.44-.2-.66-.13-.06-.05-.13-.1-.21-.12-.67-.29-1.37.29-1.36.99,0,2.35.15,4.74-.06,7.08-.02.15-.16.16-.28.17-.55.02-1.13,0-1.71,0-.74-.02-1.49-.03-2.21.02-.75.14-2.44.11-4.42.08-4.53-.06-10.62-.12-10.65,1.79.26,3.17.33,6.39.92,9.53.07.86.32,2.13,1.46,1.84,6.04-1.23,12.32-.51,18.38-1.84-.2,2.2-.13,4.42.4,6.58.14.54.28,1.2.74,1.56.17.14.35.2.53.19.42,0,.83-.32,1.1-.66,1.09-1.09,2.1-2.25,3.02-3.49,2.84-3.5,5.8-6.99,8.4-10.68.26-.54.77-.93.93-1.5,0-.04,0-.07,0-.1.76-1.08-2.18-2.44-2.85-3.07Zm-10.41,17.81c-.51-1.89-.69-3.88-.51-5.83.15-1.21.05-2.49-1.53-2.18-5.97,1.3-12.21.64-18.19,1.79-.64-3.21-.66-6.49-1.01-9.75,2.37-.6,4.86-.59,7.33-.58.9,0,1.8,0,2.68-.02,2.62-.03,5.25-.11,7.87-.12,1.74-.19,1.51-2.33,1.49-3.62-.08-1.53.06-3.06-.02-4.58.43.49,1.23.91,1.55,1.34,3.52,3.64,8.46,5.38,12.28,8.62-3.75,5.12-7.65,10.19-11.93,14.93Z"></path>
</svg>
